<mxfile host="app.diagrams.net" agent="Mozilla/5.0 (X11; Linux x86_64; rv:142.0) Gecko/20100101 Firefox/142.0" version="28.1.1">
  <diagram name="Page-1" id="2qbZ1LhTElEmyzvvCm6c">
    <mxGraphModel dx="2074" dy="846" grid="1" gridSize="10" guides="1" tooltips="1" connect="1" arrows="1" fold="1" page="1" pageScale="1" pageWidth="827" pageHeight="1169" background="none" math="0" shadow="0">
      <root>
        <mxCell id="0" />
        <mxCell id="1" parent="0" />
        <mxCell id="tZc7Lirz8rw_bjvc8guJ-58" style="edgeStyle=orthogonalEdgeStyle;rounded=0;orthogonalLoop=1;jettySize=auto;html=1;exitX=1;exitY=0;exitDx=0;exitDy=120;exitPerimeter=0;" edge="1" parent="1" source="tZc7Lirz8rw_bjvc8guJ-1" target="tZc7Lirz8rw_bjvc8guJ-42">
          <mxGeometry relative="1" as="geometry" />
        </mxCell>
        <mxCell id="tZc7Lirz8rw_bjvc8guJ-59" value="Load" style="edgeLabel;html=1;align=center;verticalAlign=middle;resizable=0;points=[];" vertex="1" connectable="0" parent="tZc7Lirz8rw_bjvc8guJ-58">
          <mxGeometry x="0.4074" y="-3" relative="1" as="geometry">
            <mxPoint x="-55" y="-20" as="offset" />
          </mxGeometry>
        </mxCell>
        <mxCell id="tZc7Lirz8rw_bjvc8guJ-1" value="&lt;b&gt;&lt;font style=&quot;font-size: 18px;&quot;&gt;RAG VectorDB&lt;/font&gt;&lt;/b&gt;" style="shape=cylinder3;whiteSpace=wrap;html=1;boundedLbl=1;backgroundOutline=1;size=15;fillColor=#dae8fc;strokeColor=#6c8ebf;" vertex="1" parent="1">
          <mxGeometry x="-240" y="600" width="120" height="170" as="geometry" />
        </mxCell>
        <mxCell id="tZc7Lirz8rw_bjvc8guJ-26" value="Jupyter Notebooks" style="swimlane;whiteSpace=wrap;html=1;fillColor=#fff2cc;strokeColor=#d6b656;fillStyle=auto;labelBackgroundColor=none;" vertex="1" parent="1">
          <mxGeometry x="40" y="500" width="250" height="390" as="geometry" />
        </mxCell>
        <mxCell id="tZc7Lirz8rw_bjvc8guJ-27" value="threat_actor_knowledge_builder.ipynb" style="shape=note;whiteSpace=wrap;html=1;backgroundOutline=1;darkOpacity=0.05;fillColor=#fff2cc;strokeColor=#d6b656;" vertex="1" parent="tZc7Lirz8rw_bjvc8guJ-26">
          <mxGeometry x="15" y="30" width="220" height="75" as="geometry" />
        </mxCell>
        <mxCell id="tZc7Lirz8rw_bjvc8guJ-28" value="threat_actor_report_summarizer.ipynb" style="shape=note;whiteSpace=wrap;html=1;backgroundOutline=1;darkOpacity=0.05;fillColor=#fff2cc;strokeColor=#d6b656;" vertex="1" parent="tZc7Lirz8rw_bjvc8guJ-26">
          <mxGeometry x="15" y="120" width="220" height="75" as="geometry" />
        </mxCell>
        <mxCell id="tZc7Lirz8rw_bjvc8guJ-42" value="&lt;h1 class=&quot;Box-sc-g0xbh4-0 jGhzSQ prc-Heading-Heading-6CmGO&quot; tabindex=&quot;-1&quot; id=&quot;file-name-id-wide&quot;&gt;&lt;font style=&quot;font-size: 12px;&quot;&gt;&lt;span style=&quot;font-weight: normal;&quot;&gt;threat_actor_QA.ipynb&lt;/span&gt;&lt;/font&gt;&lt;/h1&gt;" style="shape=note;whiteSpace=wrap;html=1;backgroundOutline=1;darkOpacity=0.05;fillColor=#fff2cc;strokeColor=#d6b656;fontStyle=1" vertex="1" parent="tZc7Lirz8rw_bjvc8guJ-26">
          <mxGeometry x="15" y="210" width="220" height="75" as="geometry" />
        </mxCell>
        <mxCell id="tZc7Lirz8rw_bjvc8guJ-43" value="&lt;h1 id=&quot;file-name-id-wide&quot; tabindex=&quot;-1&quot; class=&quot;Box-sc-g0xbh4-0 jGhzSQ prc-Heading-Heading-6CmGO&quot;&gt;&lt;font style=&quot;font-size: 12px;&quot;&gt;&lt;span style=&quot;font-weight: normal;&quot;&gt;threat_actor_assessment.ipynb&lt;/span&gt;&lt;/font&gt;&lt;/h1&gt;" style="shape=note;whiteSpace=wrap;html=1;backgroundOutline=1;darkOpacity=0.05;fillColor=#fff2cc;strokeColor=#d6b656;fontStyle=1" vertex="1" parent="tZc7Lirz8rw_bjvc8guJ-26">
          <mxGeometry x="15" y="300" width="220" height="75" as="geometry" />
        </mxCell>
        <mxCell id="tZc7Lirz8rw_bjvc8guJ-29" value="" style="group" vertex="1" connectable="0" parent="1">
          <mxGeometry x="324" y="190" width="180" height="310" as="geometry" />
        </mxCell>
        <mxCell id="tZc7Lirz8rw_bjvc8guJ-23" value="&lt;h3&gt;&lt;br&gt;&lt;/h3&gt;" style="shape=cylinder3;whiteSpace=wrap;html=1;boundedLbl=1;backgroundOutline=1;size=37;fillColor=#f5f5f5;fontColor=#333333;strokeColor=#666666;" vertex="1" parent="tZc7Lirz8rw_bjvc8guJ-29">
          <mxGeometry width="180" height="310" as="geometry" />
        </mxCell>
        <mxCell id="tZc7Lirz8rw_bjvc8guJ-4" value="Threat Actor Entry" style="swimlane;whiteSpace=wrap;html=1;startSize=23;fillColor=#f5f5f5;fontColor=#333333;strokeColor=#666666;" vertex="1" parent="tZc7Lirz8rw_bjvc8guJ-29">
          <mxGeometry x="15" y="90" width="150" height="180" as="geometry">
            <mxRectangle x="375" y="300" width="110" height="30" as="alternateBounds" />
          </mxGeometry>
        </mxCell>
        <mxCell id="tZc7Lirz8rw_bjvc8guJ-6" value="" style="shape=note;whiteSpace=wrap;html=1;backgroundOutline=1;darkOpacity=0.05;fillColor=#f5f5f5;fontColor=#333333;strokeColor=#666666;" vertex="1" parent="tZc7Lirz8rw_bjvc8guJ-4">
          <mxGeometry x="45" y="40" width="80" height="100" as="geometry" />
        </mxCell>
        <mxCell id="tZc7Lirz8rw_bjvc8guJ-5" value="" style="shape=note;whiteSpace=wrap;html=1;backgroundOutline=1;darkOpacity=0.05;fillColor=#f5f5f5;fontColor=#333333;strokeColor=#666666;" vertex="1" parent="tZc7Lirz8rw_bjvc8guJ-4">
          <mxGeometry x="35" y="50" width="80" height="100" as="geometry" />
        </mxCell>
        <mxCell id="tZc7Lirz8rw_bjvc8guJ-2" value="Threat actor report" style="shape=note;whiteSpace=wrap;html=1;backgroundOutline=1;darkOpacity=0.05;fillColor=#f5f5f5;fontColor=#333333;strokeColor=#666666;fontStyle=1" vertex="1" parent="tZc7Lirz8rw_bjvc8guJ-4">
          <mxGeometry x="25" y="60" width="80" height="100" as="geometry" />
        </mxCell>
        <mxCell id="tZc7Lirz8rw_bjvc8guJ-24" value="&lt;font style=&quot;font-size: 14px;&quot;&gt;&lt;b&gt;ETDA Threat Actor Encyclopedia&lt;/b&gt;&lt;/font&gt;" style="text;html=1;align=center;verticalAlign=middle;whiteSpace=wrap;rounded=0;" vertex="1" parent="tZc7Lirz8rw_bjvc8guJ-29">
          <mxGeometry x="23.5" y="20" width="133" height="30" as="geometry" />
        </mxCell>
        <mxCell id="tZc7Lirz8rw_bjvc8guJ-41" value="&lt;b&gt;OpenAI&lt;/b&gt;" style="ellipse;shape=cloud;whiteSpace=wrap;html=1;" vertex="1" parent="1">
          <mxGeometry x="50" y="210" width="190" height="120" as="geometry" />
        </mxCell>
        <mxCell id="tZc7Lirz8rw_bjvc8guJ-44" style="edgeStyle=orthogonalEdgeStyle;rounded=0;orthogonalLoop=1;jettySize=auto;html=1;exitX=0.993;exitY=0.493;exitDx=0;exitDy=0;exitPerimeter=0;entryX=0.5;entryY=1;entryDx=0;entryDy=0;entryPerimeter=0;" edge="1" parent="1" source="tZc7Lirz8rw_bjvc8guJ-27" target="tZc7Lirz8rw_bjvc8guJ-23">
          <mxGeometry relative="1" as="geometry" />
        </mxCell>
        <mxCell id="tZc7Lirz8rw_bjvc8guJ-45" value="Scrape" style="edgeLabel;html=1;align=center;verticalAlign=middle;resizable=0;points=[];" vertex="1" connectable="0" parent="tZc7Lirz8rw_bjvc8guJ-44">
          <mxGeometry x="0.5654" y="-2" relative="1" as="geometry">
            <mxPoint x="-32" y="11" as="offset" />
          </mxGeometry>
        </mxCell>
        <mxCell id="tZc7Lirz8rw_bjvc8guJ-46" value="" style="group" vertex="1" connectable="0" parent="1">
          <mxGeometry x="660" y="340" width="100" height="130" as="geometry" />
        </mxCell>
        <mxCell id="tZc7Lirz8rw_bjvc8guJ-38" value="" style="shape=note;whiteSpace=wrap;html=1;backgroundOutline=1;darkOpacity=0.05;fillColor=#f5f5f5;fontColor=#333333;strokeColor=#666666;" vertex="1" parent="tZc7Lirz8rw_bjvc8guJ-46">
          <mxGeometry x="20" width="80" height="108.33333333333334" as="geometry" />
        </mxCell>
        <mxCell id="tZc7Lirz8rw_bjvc8guJ-39" value="" style="shape=note;whiteSpace=wrap;html=1;backgroundOutline=1;darkOpacity=0.05;fillColor=#f5f5f5;fontColor=#333333;strokeColor=#666666;" vertex="1" parent="tZc7Lirz8rw_bjvc8guJ-46">
          <mxGeometry x="10" y="10.833333333333334" width="80" height="108.33333333333334" as="geometry" />
        </mxCell>
        <mxCell id="tZc7Lirz8rw_bjvc8guJ-40" value="Summarized threat actor reports" style="shape=note;whiteSpace=wrap;html=1;backgroundOutline=1;darkOpacity=0.05;fillColor=#f5f5f5;fontColor=#333333;strokeColor=#666666;fontStyle=1" vertex="1" parent="tZc7Lirz8rw_bjvc8guJ-46">
          <mxGeometry y="21.666666666666668" width="80" height="108.33333333333334" as="geometry" />
        </mxCell>
        <mxCell id="tZc7Lirz8rw_bjvc8guJ-47" value="" style="group;fontStyle=1" vertex="1" connectable="0" parent="1">
          <mxGeometry x="530" y="340" width="100" height="130" as="geometry" />
        </mxCell>
        <mxCell id="tZc7Lirz8rw_bjvc8guJ-35" value="" style="shape=note;whiteSpace=wrap;html=1;backgroundOutline=1;darkOpacity=0.05;fillColor=#f5f5f5;fontColor=#333333;strokeColor=#666666;" vertex="1" parent="tZc7Lirz8rw_bjvc8guJ-47">
          <mxGeometry x="20" width="80" height="108.33333333333333" as="geometry" />
        </mxCell>
        <mxCell id="tZc7Lirz8rw_bjvc8guJ-36" value="" style="shape=note;whiteSpace=wrap;html=1;backgroundOutline=1;darkOpacity=0.05;fillColor=#f5f5f5;fontColor=#333333;strokeColor=#666666;" vertex="1" parent="tZc7Lirz8rw_bjvc8guJ-47">
          <mxGeometry x="10" y="10.833333333333332" width="80" height="108.33333333333333" as="geometry" />
        </mxCell>
        <mxCell id="tZc7Lirz8rw_bjvc8guJ-37" value="&lt;b&gt;Extracted threat actor report&lt;/b&gt;s" style="shape=note;whiteSpace=wrap;html=1;backgroundOutline=1;darkOpacity=0.05;fillColor=#f5f5f5;fontColor=#333333;strokeColor=#666666;fontStyle=1" vertex="1" parent="tZc7Lirz8rw_bjvc8guJ-47">
          <mxGeometry y="21.666666666666664" width="80" height="108.33333333333333" as="geometry" />
        </mxCell>
        <mxCell id="tZc7Lirz8rw_bjvc8guJ-48" style="edgeStyle=orthogonalEdgeStyle;rounded=0;orthogonalLoop=1;jettySize=auto;html=1;exitX=0;exitY=0;exitDx=220;exitDy=52.5;exitPerimeter=0;entryX=0.5;entryY=1;entryDx=0;entryDy=0;entryPerimeter=0;" edge="1" parent="1" source="tZc7Lirz8rw_bjvc8guJ-27" target="tZc7Lirz8rw_bjvc8guJ-37">
          <mxGeometry relative="1" as="geometry" />
        </mxCell>
        <mxCell id="tZc7Lirz8rw_bjvc8guJ-49" value="Store" style="edgeLabel;html=1;align=center;verticalAlign=middle;resizable=0;points=[];" vertex="1" connectable="0" parent="tZc7Lirz8rw_bjvc8guJ-48">
          <mxGeometry x="-0.1411" y="2" relative="1" as="geometry">
            <mxPoint x="100" y="-13" as="offset" />
          </mxGeometry>
        </mxCell>
        <mxCell id="tZc7Lirz8rw_bjvc8guJ-51" style="edgeStyle=orthogonalEdgeStyle;rounded=0;orthogonalLoop=1;jettySize=auto;html=1;entryX=0.55;entryY=0.95;entryDx=0;entryDy=0;entryPerimeter=0;" edge="1" parent="1" target="tZc7Lirz8rw_bjvc8guJ-41">
          <mxGeometry relative="1" as="geometry">
            <mxPoint x="55" y="550" as="sourcePoint" />
            <Array as="points">
              <mxPoint x="55" y="550" />
              <mxPoint x="20" y="550" />
              <mxPoint x="20" y="430" />
              <mxPoint x="155" y="430" />
            </Array>
          </mxGeometry>
        </mxCell>
        <mxCell id="tZc7Lirz8rw_bjvc8guJ-52" value="Leverage" style="edgeLabel;html=1;align=center;verticalAlign=middle;resizable=0;points=[];" vertex="1" connectable="0" parent="tZc7Lirz8rw_bjvc8guJ-51">
          <mxGeometry x="0.1984" y="2" relative="1" as="geometry">
            <mxPoint x="14" y="-16" as="offset" />
          </mxGeometry>
        </mxCell>
        <mxCell id="tZc7Lirz8rw_bjvc8guJ-53" style="edgeStyle=orthogonalEdgeStyle;rounded=0;orthogonalLoop=1;jettySize=auto;html=1;exitX=0;exitY=0.5;exitDx=0;exitDy=0;exitPerimeter=0;" edge="1" parent="1" source="tZc7Lirz8rw_bjvc8guJ-27" target="tZc7Lirz8rw_bjvc8guJ-1">
          <mxGeometry relative="1" as="geometry" />
        </mxCell>
        <mxCell id="tZc7Lirz8rw_bjvc8guJ-54" value="Create" style="edgeLabel;html=1;align=center;verticalAlign=middle;resizable=0;points=[];" vertex="1" connectable="0" parent="tZc7Lirz8rw_bjvc8guJ-53">
          <mxGeometry x="0.6034" y="-1" relative="1" as="geometry">
            <mxPoint x="2" y="-14" as="offset" />
          </mxGeometry>
        </mxCell>
        <mxCell id="tZc7Lirz8rw_bjvc8guJ-55" style="edgeStyle=orthogonalEdgeStyle;rounded=0;orthogonalLoop=1;jettySize=auto;html=1;exitX=0;exitY=0.5;exitDx=0;exitDy=0;exitPerimeter=0;entryX=0.55;entryY=0.95;entryDx=0;entryDy=0;entryPerimeter=0;jumpStyle=arc;jumpSize=11;" edge="1" parent="1" source="tZc7Lirz8rw_bjvc8guJ-28" target="tZc7Lirz8rw_bjvc8guJ-41">
          <mxGeometry relative="1" as="geometry">
            <Array as="points">
              <mxPoint x="20" y="658" />
              <mxPoint x="20" y="430" />
              <mxPoint x="155" y="430" />
            </Array>
          </mxGeometry>
        </mxCell>
        <mxCell id="tZc7Lirz8rw_bjvc8guJ-56" style="edgeStyle=orthogonalEdgeStyle;rounded=0;orthogonalLoop=1;jettySize=auto;html=1;exitX=0;exitY=0;exitDx=220;exitDy=52.5;exitPerimeter=0;entryX=0.5;entryY=1;entryDx=0;entryDy=0;entryPerimeter=0;" edge="1" parent="1" source="tZc7Lirz8rw_bjvc8guJ-28" target="tZc7Lirz8rw_bjvc8guJ-40">
          <mxGeometry relative="1" as="geometry" />
        </mxCell>
        <mxCell id="tZc7Lirz8rw_bjvc8guJ-57" value="Store" style="edgeLabel;html=1;align=center;verticalAlign=middle;resizable=0;points=[];" vertex="1" connectable="0" parent="tZc7Lirz8rw_bjvc8guJ-56">
          <mxGeometry x="0.106" y="-1" relative="1" as="geometry">
            <mxPoint x="58" y="-13" as="offset" />
          </mxGeometry>
        </mxCell>
        <mxCell id="tZc7Lirz8rw_bjvc8guJ-60" style="edgeStyle=orthogonalEdgeStyle;rounded=0;orthogonalLoop=1;jettySize=auto;html=1;entryX=0.55;entryY=0.95;entryDx=0;entryDy=0;entryPerimeter=0;jumpStyle=arc;jumpSize=11;" edge="1" parent="1" target="tZc7Lirz8rw_bjvc8guJ-41">
          <mxGeometry relative="1" as="geometry">
            <mxPoint x="55" y="710" as="sourcePoint" />
            <Array as="points">
              <mxPoint x="20" y="710" />
              <mxPoint x="20" y="430" />
              <mxPoint x="155" y="430" />
            </Array>
          </mxGeometry>
        </mxCell>
        <mxCell id="tZc7Lirz8rw_bjvc8guJ-61" style="edgeStyle=orthogonalEdgeStyle;rounded=0;orthogonalLoop=1;jettySize=auto;html=1;exitX=0;exitY=0;exitDx=0;exitDy=0;exitPerimeter=0;entryX=0.55;entryY=0.95;entryDx=0;entryDy=0;entryPerimeter=0;jumpStyle=arc;jumpSize=11;" edge="1" parent="1" source="tZc7Lirz8rw_bjvc8guJ-43" target="tZc7Lirz8rw_bjvc8guJ-41">
          <mxGeometry relative="1" as="geometry">
            <Array as="points">
              <mxPoint x="20" y="800" />
              <mxPoint x="20" y="430" />
              <mxPoint x="155" y="430" />
            </Array>
          </mxGeometry>
        </mxCell>
        <mxCell id="tZc7Lirz8rw_bjvc8guJ-63" style="edgeStyle=orthogonalEdgeStyle;rounded=0;orthogonalLoop=1;jettySize=auto;html=1;exitX=1;exitY=0;exitDx=0;exitDy=120;exitPerimeter=0;entryX=0;entryY=0.5;entryDx=0;entryDy=0;entryPerimeter=0;" edge="1" parent="1" source="tZc7Lirz8rw_bjvc8guJ-1" target="tZc7Lirz8rw_bjvc8guJ-43">
          <mxGeometry relative="1" as="geometry" />
        </mxCell>
      </root>
    </mxGraphModel>
  </diagram>
</mxfile>
